<?xml version="1.0" encoding="us-ascii" standalone="no"?><svg xmlns="http://www.w3.org/2000/svg" xmlns:xlink="http://www.w3.org/1999/xlink" contentStyleType="text/css" height="839px" preserveAspectRatio="none" style="width:346px;height:839px;background:#FFFFFF;" version="1.1" viewBox="0 0 346 839" width="346px" zoomAndPan="magnify"><defs/><g><!--class Climber--><g id="elem_Climber"><rect codeLine="5" fill="#F1F1F1" height="113.1875" id="Climber" rx="2.5" ry="2.5" style="stroke:#181818;stroke-width:0.5;" width="89" x="156.5" y="7"/><ellipse cx="171.5" cy="23" fill="#FFAAAA" rx="11" ry="11" style="stroke:#181818;stroke-width:1.0;"/><path d="M171.9375,20.5313 L173.7813,20.5313 L173.7813,22.125 C173.7813,22.5156 173.8125,22.6875 173.9063,22.8281 C174.0625,23.0781 174.3438,23.2344 174.6406,23.2344 C174.9063,23.2344 175.1563,23.1094 175.3281,22.8906 C175.4688,22.7188 175.4844,22.5938 175.4844,22.125 L175.4844,18.8438 L166.7188,18.8438 L166.7188,22.125 C166.7188,22.5156 166.75,22.6875 166.8281,22.8281 C166.9844,23.0938 167.2813,23.2344 167.5625,23.2344 C167.8438,23.2344 168.0938,23.1094 168.2656,22.8906 C168.375,22.7188 168.4063,22.5781 168.4063,22.125 L168.4063,20.5313 L170.2344,20.5313 L170.2344,27.0469 L169.125,27.0469 C168.6875,27.0469 168.5625,27.0625 168.4063,27.1719 C168.1563,27.3281 168,27.6094 168,27.9063 C168,28.1563 168.1406,28.4219 168.3594,28.5781 C168.5156,28.7031 168.7344,28.75 169.125,28.75 L173.0625,28.75 C173.3906,28.75 173.6563,28.7031 173.7656,28.625 C174.0313,28.4844 174.1719,28.1875 174.1719,27.9063 C174.1719,27.625 174.0469,27.375 173.8125,27.2031 C173.6563,27.0781 173.5156,27.0469 173.0625,27.0469 L171.9375,27.0469 L171.9375,20.5313 Z " fill="#000000"/><text fill="#000000" font-family="sans-serif" font-size="14" lengthAdjust="spacing" textLength="57" x="185.5" y="27.8467">Climber</text><line style="stroke:#181818;stroke-width:0.5;" x1="157.5" x2="244.5" y1="39" y2="39"/><text fill="#000000" font-family="sans-serif" font-size="14" lengthAdjust="spacing" text-decoration="underline" textLength="13" x="162.5" y="55.9951">id</text><text fill="#000000" font-family="sans-serif" font-size="14" lengthAdjust="spacing" textLength="40" x="162.5" y="72.292">name</text><text fill="#000000" font-family="sans-serif" font-size="14" lengthAdjust="spacing" textLength="39" x="162.5" y="88.5889">email</text><text fill="#000000" font-family="sans-serif" font-size="14" lengthAdjust="spacing" textLength="67" x="162.5" y="104.8857">password</text><line style="stroke:#181818;stroke-width:0.5;" x1="157.5" x2="244.5" y1="112.1875" y2="112.1875"/></g><!--class Gym--><g id="elem_Gym"><rect codeLine="12" fill="#F1F1F1" height="113.1875" id="Gym" rx="2.5" ry="2.5" style="stroke:#181818;stroke-width:0.5;" width="102" x="146" y="339"/><ellipse cx="177.65" cy="355" fill="#FFAAAA" rx="11" ry="11" style="stroke:#181818;stroke-width:1.0;"/><path d="M178.0875,352.5313 L179.9313,352.5313 L179.9313,354.125 C179.9313,354.5156 179.9625,354.6875 180.0563,354.8281 C180.2125,355.0781 180.4938,355.2344 180.7906,355.2344 C181.0563,355.2344 181.3063,355.1094 181.4781,354.8906 C181.6188,354.7188 181.6344,354.5938 181.6344,354.125 L181.6344,350.8438 L172.8688,350.8438 L172.8688,354.125 C172.8688,354.5156 172.9,354.6875 172.9781,354.8281 C173.1344,355.0938 173.4313,355.2344 173.7125,355.2344 C173.9938,355.2344 174.2438,355.1094 174.4156,354.8906 C174.525,354.7188 174.5563,354.5781 174.5563,354.125 L174.5563,352.5313 L176.3844,352.5313 L176.3844,359.0469 L175.275,359.0469 C174.8375,359.0469 174.7125,359.0625 174.5563,359.1719 C174.3063,359.3281 174.15,359.6094 174.15,359.9063 C174.15,360.1563 174.2906,360.4219 174.5094,360.5781 C174.6656,360.7031 174.8844,360.75 175.275,360.75 L179.2125,360.75 C179.5406,360.75 179.8063,360.7031 179.9156,360.625 C180.1813,360.4844 180.3219,360.1875 180.3219,359.9063 C180.3219,359.625 180.1969,359.375 179.9625,359.2031 C179.8063,359.0781 179.6656,359.0469 179.2125,359.0469 L178.0875,359.0469 L178.0875,352.5313 Z " fill="#000000"/><text fill="#000000" font-family="sans-serif" font-size="14" lengthAdjust="spacing" textLength="33" x="195.35" y="359.8467">Gym</text><line style="stroke:#181818;stroke-width:0.5;" x1="147" x2="247" y1="371" y2="371"/><text fill="#000000" font-family="sans-serif" font-size="14" lengthAdjust="spacing" text-decoration="underline" textLength="13" x="166" y="387.9951">id</text><text fill="#000000" font-family="sans-serif" font-size="14" lengthAdjust="spacing" textLength="40" x="166" y="404.292">name</text><text fill="#000000" font-family="sans-serif" font-size="14" lengthAdjust="spacing" textLength="55" x="166" y="420.5889">address</text><polygon fill="none" points="157,428.5391,161,432.5391,157,436.5391,153,432.5391" style="stroke:#B38D22;stroke-width:1.0;"/><text fill="#000000" font-family="sans-serif" font-size="14" lengthAdjust="spacing" textLength="76" x="166" y="436.8857">owner_id#</text><line style="stroke:#181818;stroke-width:0.5;" x1="147" x2="247" y1="444.1875" y2="444.1875"/></g><!--class Route--><g id="elem_Route"><rect codeLine="19" fill="#F1F1F1" height="129.4844" id="Route" rx="2.5" ry="2.5" style="stroke:#181818;stroke-width:0.5;" width="90" x="152" y="513"/><ellipse cx="173.75" cy="529" fill="#FFAAAA" rx="11" ry="11" style="stroke:#181818;stroke-width:1.0;"/><path d="M174.1875,526.5313 L176.0313,526.5313 L176.0313,528.125 C176.0313,528.5156 176.0625,528.6875 176.1563,528.8281 C176.3125,529.0781 176.5938,529.2344 176.8906,529.2344 C177.1563,529.2344 177.4063,529.1094 177.5781,528.8906 C177.7188,528.7188 177.7344,528.5938 177.7344,528.125 L177.7344,524.8438 L168.9688,524.8438 L168.9688,528.125 C168.9688,528.5156 169,528.6875 169.0781,528.8281 C169.2344,529.0938 169.5313,529.2344 169.8125,529.2344 C170.0938,529.2344 170.3438,529.1094 170.5156,528.8906 C170.625,528.7188 170.6563,528.5781 170.6563,528.125 L170.6563,526.5313 L172.4844,526.5313 L172.4844,533.0469 L171.375,533.0469 C170.9375,533.0469 170.8125,533.0625 170.6563,533.1719 C170.4063,533.3281 170.25,533.6094 170.25,533.9063 C170.25,534.1563 170.3906,534.4219 170.6094,534.5781 C170.7656,534.7031 170.9844,534.75 171.375,534.75 L175.3125,534.75 C175.6406,534.75 175.9063,534.7031 176.0156,534.625 C176.2813,534.4844 176.4219,534.1875 176.4219,533.9063 C176.4219,533.625 176.2969,533.375 176.0625,533.2031 C175.9063,533.0781 175.7656,533.0469 175.3125,533.0469 L174.1875,533.0469 L174.1875,526.5313 Z " fill="#000000"/><text fill="#000000" font-family="sans-serif" font-size="14" lengthAdjust="spacing" textLength="43" x="189.25" y="533.8467">Route</text><line style="stroke:#181818;stroke-width:0.5;" x1="153" x2="241" y1="545" y2="545"/><text fill="#000000" font-family="sans-serif" font-size="14" lengthAdjust="spacing" text-decoration="underline" textLength="13" x="172" y="561.9951">id</text><text fill="#000000" font-family="sans-serif" font-size="14" lengthAdjust="spacing" textLength="40" x="172" y="578.292">name</text><polygon fill="none" points="163,586.2422,167,590.2422,163,594.2422,159,590.2422" style="stroke:#B38D22;stroke-width:1.0;"/><text fill="#000000" font-family="sans-serif" font-size="14" lengthAdjust="spacing" textLength="63" x="172" y="594.5889">gym_id#</text><text fill="#000000" font-family="sans-serif" font-size="14" lengthAdjust="spacing" textLength="64" x="172" y="610.8857">difficulty</text><text fill="#000000" font-family="sans-serif" font-size="14" lengthAdjust="spacing" textLength="57" x="172" y="627.1826">qr_code</text><line style="stroke:#181818;stroke-width:0.5;" x1="153" x2="241" y1="634.4844" y2="634.4844"/></g><!--class Comment--><g id="elem_Comment"><rect codeLine="27" fill="#F1F1F1" height="129.4844" id="Comment" rx="2.5" ry="2.5" style="stroke:#181818;stroke-width:0.5;" width="113" x="14.5" y="703"/><ellipse cx="33.55" cy="719" fill="#FFAAAA" rx="11" ry="11" style="stroke:#181818;stroke-width:1.0;"/><path d="M33.9875,716.5313 L35.8313,716.5313 L35.8313,718.125 C35.8313,718.5156 35.8625,718.6875 35.9563,718.8281 C36.1125,719.0781 36.3938,719.2344 36.6906,719.2344 C36.9563,719.2344 37.2063,719.1094 37.3781,718.8906 C37.5188,718.7188 37.5344,718.5938 37.5344,718.125 L37.5344,714.8438 L28.7687,714.8438 L28.7687,718.125 C28.7687,718.5156 28.8,718.6875 28.8781,718.8281 C29.0344,719.0938 29.3312,719.2344 29.6125,719.2344 C29.8937,719.2344 30.1437,719.1094 30.3156,718.8906 C30.425,718.7188 30.4562,718.5781 30.4562,718.125 L30.4562,716.5313 L32.2844,716.5313 L32.2844,723.0469 L31.175,723.0469 C30.7375,723.0469 30.6125,723.0625 30.4562,723.1719 C30.2062,723.3281 30.05,723.6094 30.05,723.9063 C30.05,724.1563 30.1906,724.4219 30.4094,724.5781 C30.5656,724.7031 30.7844,724.75 31.175,724.75 L35.1125,724.75 C35.4406,724.75 35.7063,724.7031 35.8156,724.625 C36.0813,724.4844 36.2219,724.1875 36.2219,723.9063 C36.2219,723.625 36.0969,723.375 35.8625,723.2031 C35.7063,723.0781 35.5656,723.0469 35.1125,723.0469 L33.9875,723.0469 L33.9875,716.5313 Z " fill="#000000"/><text fill="#000000" font-family="sans-serif" font-size="14" lengthAdjust="spacing" textLength="72" x="48.45" y="723.8467">Comment</text><line style="stroke:#181818;stroke-width:0.5;" x1="15.5" x2="126.5" y1="735" y2="735"/><text fill="#000000" font-family="sans-serif" font-size="14" lengthAdjust="spacing" text-decoration="underline" textLength="13" x="34.5" y="751.9951">id</text><polygon fill="none" points="25.5,759.9453,29.5,763.9453,25.5,767.9453,21.5,763.9453" style="stroke:#B38D22;stroke-width:1.0;"/><text fill="#000000" font-family="sans-serif" font-size="14" lengthAdjust="spacing" textLength="87" x="34.5" y="768.292">climber_id#</text><polygon fill="none" points="25.5,776.2422,29.5,780.2422,25.5,784.2422,21.5,780.2422" style="stroke:#B38D22;stroke-width:1.0;"/><text fill="#000000" font-family="sans-serif" font-size="14" lengthAdjust="spacing" textLength="71" x="34.5" y="784.5889">route_id#</text><text fill="#000000" font-family="sans-serif" font-size="14" lengthAdjust="spacing" textLength="58" x="34.5" y="800.8857">content</text><text fill="#000000" font-family="sans-serif" font-size="14" lengthAdjust="spacing" textLength="80" x="34.5" y="817.1826">timestamp</text><line style="stroke:#181818;stroke-width:0.5;" x1="15.5" x2="126.5" y1="824.4844" y2="824.4844"/></g><!--class Attempt--><g id="elem_Attempt"><rect codeLine="35" fill="#F1F1F1" height="113.1875" id="Attempt" rx="2.5" ry="2.5" style="stroke:#181818;stroke-width:0.5;" width="113" x="226.5" y="711"/><ellipse cx="249.15" cy="727" fill="#FFAAAA" rx="11" ry="11" style="stroke:#181818;stroke-width:1.0;"/><path d="M249.5875,724.5313 L251.4313,724.5313 L251.4313,726.125 C251.4313,726.5156 251.4625,726.6875 251.5563,726.8281 C251.7125,727.0781 251.9938,727.2344 252.2906,727.2344 C252.5563,727.2344 252.8063,727.1094 252.9781,726.8906 C253.1188,726.7188 253.1344,726.5938 253.1344,726.125 L253.1344,722.8438 L244.3688,722.8438 L244.3688,726.125 C244.3688,726.5156 244.4,726.6875 244.4781,726.8281 C244.6344,727.0938 244.9313,727.2344 245.2125,727.2344 C245.4938,727.2344 245.7438,727.1094 245.9156,726.8906 C246.025,726.7188 246.0563,726.5781 246.0563,726.125 L246.0563,724.5313 L247.8844,724.5313 L247.8844,731.0469 L246.775,731.0469 C246.3375,731.0469 246.2125,731.0625 246.0563,731.1719 C245.8063,731.3281 245.65,731.6094 245.65,731.9063 C245.65,732.1563 245.7906,732.4219 246.0094,732.5781 C246.1656,732.7031 246.3844,732.75 246.775,732.75 L250.7125,732.75 C251.0406,732.75 251.3063,732.7031 251.4156,732.625 C251.6813,732.4844 251.8219,732.1875 251.8219,731.9063 C251.8219,731.625 251.6969,731.375 251.4625,731.2031 C251.3063,731.0781 251.1656,731.0469 250.7125,731.0469 L249.5875,731.0469 L249.5875,724.5313 Z " fill="#000000"/><text fill="#000000" font-family="sans-serif" font-size="14" lengthAdjust="spacing" textLength="64" x="264.85" y="731.8467">Attempt</text><line style="stroke:#181818;stroke-width:0.5;" x1="227.5" x2="338.5" y1="743" y2="743"/><text fill="#000000" font-family="sans-serif" font-size="14" lengthAdjust="spacing" text-decoration="underline" textLength="13" x="246.5" y="759.9951">id</text><polygon fill="none" points="237.5,767.9453,241.5,771.9453,237.5,775.9453,233.5,771.9453" style="stroke:#B38D22;stroke-width:1.0;"/><text fill="#000000" font-family="sans-serif" font-size="14" lengthAdjust="spacing" textLength="87" x="246.5" y="776.292">climber_id#</text><polygon fill="none" points="237.5,784.2422,241.5,788.2422,237.5,792.2422,233.5,788.2422" style="stroke:#B38D22;stroke-width:1.0;"/><text fill="#000000" font-family="sans-serif" font-size="14" lengthAdjust="spacing" textLength="71" x="246.5" y="792.5889">route_id#</text><text fill="#000000" font-family="sans-serif" font-size="14" lengthAdjust="spacing" textLength="33" x="246.5" y="808.8857">date</text><line style="stroke:#181818;stroke-width:0.5;" x1="227.5" x2="338.5" y1="816.1875" y2="816.1875"/></g><!--class Admin--><g id="elem_Admin"><rect codeLine="42" fill="#F1F1F1" height="96.8906" id="Admin" rx="2.5" ry="2.5" style="stroke:#181818;stroke-width:0.5;" width="113" x="59.5" y="181"/><ellipse cx="90.25" cy="197" fill="#FFAAAA" rx="11" ry="11" style="stroke:#181818;stroke-width:1.0;"/><path d="M90.6875,194.5313 L92.5313,194.5313 L92.5313,196.125 C92.5313,196.5156 92.5625,196.6875 92.6563,196.8281 C92.8125,197.0781 93.0938,197.2344 93.3906,197.2344 C93.6563,197.2344 93.9063,197.1094 94.0781,196.8906 C94.2188,196.7188 94.2344,196.5938 94.2344,196.125 L94.2344,192.8438 L85.4688,192.8438 L85.4688,196.125 C85.4688,196.5156 85.5,196.6875 85.5781,196.8281 C85.7344,197.0938 86.0313,197.2344 86.3125,197.2344 C86.5938,197.2344 86.8438,197.1094 87.0156,196.8906 C87.125,196.7188 87.1563,196.5781 87.1563,196.125 L87.1563,194.5313 L88.9844,194.5313 L88.9844,201.0469 L87.875,201.0469 C87.4375,201.0469 87.3125,201.0625 87.1563,201.1719 C86.9063,201.3281 86.75,201.6094 86.75,201.9063 C86.75,202.1563 86.8906,202.4219 87.1094,202.5781 C87.2656,202.7031 87.4844,202.75 87.875,202.75 L91.8125,202.75 C92.1406,202.75 92.4063,202.7031 92.5156,202.625 C92.7813,202.4844 92.9219,202.1875 92.9219,201.9063 C92.9219,201.625 92.7969,201.375 92.5625,201.2031 C92.4063,201.0781 92.2656,201.0469 91.8125,201.0469 L90.6875,201.0469 L90.6875,194.5313 Z " fill="#000000"/><text fill="#000000" font-family="sans-serif" font-size="14" lengthAdjust="spacing" textLength="46" x="107.75" y="201.8467">Admin</text><line style="stroke:#181818;stroke-width:0.5;" x1="60.5" x2="171.5" y1="213" y2="213"/><text fill="#000000" font-family="sans-serif" font-size="14" lengthAdjust="spacing" text-decoration="underline" textLength="13" x="79.5" y="229.9951">id</text><polygon fill="none" points="70.5,237.9453,74.5,241.9453,70.5,245.9453,66.5,241.9453" style="stroke:#B38D22;stroke-width:1.0;"/><text fill="#000000" font-family="sans-serif" font-size="14" lengthAdjust="spacing" textLength="87" x="79.5" y="246.292">climber_id#</text><polygon fill="none" points="70.5,254.2422,74.5,258.2422,70.5,262.2422,66.5,258.2422" style="stroke:#B38D22;stroke-width:1.0;"/><text fill="#000000" font-family="sans-serif" font-size="14" lengthAdjust="spacing" textLength="63" x="79.5" y="262.5889">gym_id#</text><line style="stroke:#181818;stroke-width:0.5;" x1="60.5" x2="171.5" y1="269.8906" y2="269.8906"/></g><!--link Climber to Gym--><g id="link_Climber_Gym"><path codeLine="48" d="M200.326,120.107 C199.588,180.999 198.411,278.068 197.673,338.941 " fill="none" id="Climber-Gym" style="stroke:#181818;stroke-width:1.0;"/><text fill="#000000" font-family="sans-serif" font-size="13" lengthAdjust="spacing" textLength="40" x="200" y="234.0669">owner</text><text fill="#000000" font-family="sans-serif" font-size="13" lengthAdjust="spacing" textLength="8" x="191.7271" y="140.3841">1</text><text fill="#000000" font-family="sans-serif" font-size="13" lengthAdjust="spacing" textLength="23" x="173.2858" y="327.7968">0..*</text></g><!--link Climber to Admin--><g id="link_Climber_Admin"><path codeLine="49" d="M172.223,120.023 C161.964,139.816 150.511,161.915 140.632,180.975 " fill="none" id="Climber-Admin" style="stroke:#181818;stroke-width:1.0;"/><text fill="#000000" font-family="sans-serif" font-size="13" lengthAdjust="spacing" textLength="23" x="144.0625" y="140.2893">0..*</text><text fill="#000000" font-family="sans-serif" font-size="13" lengthAdjust="spacing" textLength="23" x="119.5608" y="169.831">0..*</text></g><!--link Admin to Gym--><g id="link_Admin_Gym"><path codeLine="50" d="M139.646,278.376 C148.985,297.285 159.78,319.141 169.468,338.755 " fill="none" id="Admin-Gym" style="stroke:#181818;stroke-width:1.0;"/><text fill="#000000" font-family="sans-serif" font-size="13" lengthAdjust="spacing" textLength="23" x="118.2781" y="298.0347">0..*</text><text fill="#000000" font-family="sans-serif" font-size="13" lengthAdjust="spacing" textLength="23" x="141.711" y="327.9887">0..*</text></g><!--link Climber to Attempt--><g id="link_Climber_Attempt"><path codeLine="51" d="M245.859,92.429 C285.814,121.15 338,169.883 338,228.5 C338,228.5 338,228.5 338,578.5 C338,624.409 322.705,674.18 308.246,710.972 " fill="none" id="Climber-Attempt" style="stroke:#181818;stroke-width:1.0;"/><text fill="#000000" font-family="sans-serif" font-size="13" lengthAdjust="spacing" textLength="23" x="253.4322" y="92.3717">0..*</text><text fill="#000000" font-family="sans-serif" font-size="13" lengthAdjust="spacing" textLength="23" x="287.0072" y="699.8318">0..*</text></g><!--link Climber to Comment--><g id="link_Climber_Comment"><path codeLine="52" d="M156.263,79.536 C98.6924,102.051 6,150.424 6,228.5 C6,228.5 6,228.5 6,578.5 C6,621.496 21.3735,667.136 37.1673,702.68 " fill="none" id="Climber-Comment" style="stroke:#181818;stroke-width:1.0;"/><text fill="#000000" font-family="sans-serif" font-size="13" lengthAdjust="spacing" textLength="8" x="140.4955" y="77.959">1</text><text fill="#000000" font-family="sans-serif" font-size="13" lengthAdjust="spacing" textLength="23" x="9.2091" y="691.8177">0..*</text></g><!--link Gym to Route--><g id="link_Gym_Route"><path codeLine="53" d="M197,452.466 C197,471.559 197,493.048 197,512.708 " fill="none" id="Gym-Route" style="stroke:#181818;stroke-width:1.0;"/><text fill="#000000" font-family="sans-serif" font-size="13" lengthAdjust="spacing" textLength="8" x="188.5125" y="472.3864">1</text><text fill="#000000" font-family="sans-serif" font-size="13" lengthAdjust="spacing" textLength="23" x="172.7422" y="501.8487">0..*</text></g><!--link Route to Comment--><g id="link_Route_Comment"><path codeLine="54" d="M154.342,642.148 C141.206,661.749 126.747,683.321 113.614,702.917 " fill="none" id="Route-Comment" style="stroke:#181818;stroke-width:1.0;"/><text fill="#000000" font-family="sans-serif" font-size="13" lengthAdjust="spacing" textLength="8" x="140.9472" y="662.5367">1</text><text fill="#000000" font-family="sans-serif" font-size="13" lengthAdjust="spacing" textLength="23" x="94.017" y="692.0806">0..*</text></g><!--link Route to Attempt--><g id="link_Route_Attempt"><path codeLine="55" d="M226.116,642.148 C236.3,664.412 247.648,689.22 257.514,710.785 " fill="none" id="Route-Attempt" style="stroke:#181818;stroke-width:1.0;"/><text fill="#000000" font-family="sans-serif" font-size="13" lengthAdjust="spacing" textLength="8" x="221.02" y="662.5367">1</text><text fill="#000000" font-family="sans-serif" font-size="13" lengthAdjust="spacing" textLength="23" x="230.0063" y="700.0224">0..*</text></g><!--SRC=[hLB1Ri8m3BtdAqouq0dOTfqg98J4xXFtAZGkYjOqB4a5rRH_dzE6jOWn3gm7s_MpttESZ2GMgaBOY6s9aqfed4fqUG9vAPo3a03XW8SaXpI5oMOwNg-Nz2MmMB1HxDzRfOLjidTi9iS4qdfnJ1_h7Y-CHRMhJlZuE6QiqroLIc_HJe77Y2VmoU2CKSc4Cc4OSgY5AaC13NWmLhAl4zLheuc6x2qA8QL5voWQpcKE5Tei5FumlfdQ8t6s_XRha6lNwAm3fIeAbTUbR-ZdmsQvaTWBh8pMMFbm-YwwAZ9apxjDPPU83OF6V6ugJumKUQNHUQ7tlV3IUzJx81oZVnIMmW-Ek9HQLK4d-3jLJcibylXQW3zpcCs0Fytd3npeyk45U7kLlA_fmBwidOMrzX8aZZywksrTaO-NoC8OvqZxWbXhh_JyXaMrRm00]--></g></svg>